<svg width="40px" height="40px" viewBox="0 0 40 40" xmlns="http://www.w3.org/2000/svg">
    <g id="euro" stroke="none" stroke-width="1" fill="none" fill-rule="evenodd">
        <path d="M22.0500782,31 C25.743349,31 28.2472613,29.2144928 30,26.7594203 L27.8090767,25.5478261 C26.6197183,27.3333333 24.428795,28.6405797 22.0500782,28.6405797 C18.4820031,28.6405797 15.571205,26.4405797 14.4757433,23.0608696 L23.9280125,23.0608696 L23.9280125,21.4028986 L14.1001565,21.4028986 C14.0375587,20.9565217 14.0062598,20.4782609 14.0062598,20 C14.0062598,19.4898551 14.0375587,19.0115942 14.1001565,18.5333333 L23.9280125,18.5333333 L23.9280125,16.8434783 L14.4757433,16.8434783 C15.6025039,13.4956522 18.4820031,11.3594203 22.0500782,11.3594203 C24.428795,11.3594203 26.6197183,12.6347826 27.8090767,14.4521739 L29.9687011,13.2086957 C28.3098592,10.7855072 25.743349,9 22.0500782,9 C17.0735524,9 12.9733959,12.0608696 11.7214397,16.8434783 L10,16.8434783 L10,18.5333333 L11.3771518,18.5333333 C11.3458529,19.0115942 11.314554,19.5217391 11.314554,20 C11.314554,20.4782609 11.3458529,20.9565217 11.3771518,21.4028986 L10,21.4028986 L10,23.0608696 L11.6901408,23.0608696 C12.9107981,27.9072464 17.0109546,31 22.0500782,31 Z" id="€" fill="#787878" fill-rule="nonzero"></path>
    </g>
</svg>
