<?xml version="1.0" standalone="no"?>
<!DOCTYPE svg PUBLIC "-//W3C//DTD SVG 20010904//EN"
 "http://www.w3.org/TR/2001/REC-SVG-20010904/DTD/svg10.dtd">
<svg version="1.0" xmlns="http://www.w3.org/2000/svg"
 width="500.000000pt" height="500.000000pt" viewBox="0 0 500.000000 500.000000"
 preserveAspectRatio="xMidYMid meet">
<metadata>
Created by potrace 1.11, written by Peter Selinger 2001-2013
</metadata>
<g transform="translate(0.000000,500.000000) scale(0.100000,-0.100000)"
fill="#000000" stroke="none">
<path d="M0 2500 l0 -2500 2500 0 2500 0 0 2500 0 2500 -2500 0 -2500 0 0
-2500z m4900 0 l0 -2400 -2400 0 -2400 0 0 2400 0 2400 2400 0 2400 0 0 -2400z"/>
<path d="M1472 3545 c-75 -21 -134 -58 -191 -121 -70 -77 -95 -144 -95 -264
-1 -88 1 -100 32 -162 54 -109 169 -199 293 -227 66 -16 150 -13 297 9 74 11
162 20 196 20 116 0 239 -45 330 -120 56 -46 82 -50 98 -15 28 61 -70 295
-195 465 -146 199 -321 341 -494 401 -78 27 -203 33 -271 14z"/>
<path d="M3325 3550 c-263 -53 -577 -354 -713 -685 -44 -108 -58 -169 -44
-200 16 -35 42 -31 98 15 91 75 214 120 330 120 34 0 122 -9 196 -20 147 -22
231 -25 297 -9 124 28 239 118 293 227 31 62 33 74 32 162 0 74 -5 108 -23
152 -26 67 -102 155 -165 192 -84 49 -199 66 -301 46z"/>
<path d="M1594 2402 c-80 -35 -82 -36 -72 -63 l9 -27 82 28 c78 26 82 29 80
55 -1 16 -6 31 -10 35 -4 4 -45 -8 -89 -28z"/>
<path d="M580 2011 l0 -251 40 0 40 0 0 80 0 80 78 0 c92 0 137 19 167 70 27
47 28 152 1 196 -33 56 -67 68 -203 72 l-123 4 0 -251z m232 159 c31 -24 41
-70 28 -121 -13 -49 -33 -59 -114 -59 l-66 0 0 100 0 100 64 0 c48 0 69 -5 88
-20z"/>
<path d="M1010 2010 l0 -251 38 3 37 3 3 88 3 88 57 -3 56 -3 35 -87 34 -88
44 0 c24 0 43 1 43 3 0 2 -18 45 -40 96 l-40 93 30 28 c36 34 50 68 50 123 0
56 -27 107 -70 132 -29 16 -57 21 -157 24 l-123 3 0 -252z m223 169 c44 -20
59 -77 32 -128 -18 -36 -32 -41 -111 -41 l-64 0 0 90 0 90 60 0 c32 0 70 -5
83 -11z"/>
<path d="M1450 2010 l0 -250 155 0 155 0 0 35 0 35 -115 0 -115 0 0 75 0 75
95 0 95 0 0 35 0 35 -95 0 -95 0 0 70 0 70 115 0 115 0 0 35 0 35 -155 0 -155
0 0 -250z"/>
<path d="M1910 2242 c-48 -24 -70 -68 -79 -156 -15 -163 14 -276 79 -308 36
-18 146 -24 209 -12 27 6 31 11 31 38 l0 32 -83 -4 c-54 -3 -92 0 -106 8 -36
19 -51 70 -51 170 0 100 15 151 50 170 14 7 54 11 106 8 l84 -3 0 31 c0 27 -4
32 -31 38 -64 12 -173 6 -209 -12z"/>
<path d="M2315 2246 c-76 -34 -111 -125 -103 -271 8 -163 67 -221 214 -213
108 5 155 46 175 153 24 131 -8 272 -74 319 -36 26 -166 34 -212 12z m156 -66
c45 -24 69 -142 50 -246 -14 -77 -43 -104 -111 -104 -61 0 -97 28 -110 85 -23
96 -4 223 37 255 28 22 101 27 134 10z"/>
<path d="M2702 2013 l3 -248 38 -3 37 -3 0 207 c0 123 4 204 9 199 5 -6 21
-50 36 -100 14 -49 40 -134 57 -188 l30 -98 41 3 40 3 57 188 c32 103 60 191
64 194 3 4 6 -87 6 -200 l0 -207 40 0 40 0 0 250 0 250 -69 0 -68 0 -54 -190
c-30 -104 -57 -186 -60 -182 -3 4 -20 59 -38 122 -18 63 -41 145 -52 183 l-20
67 -70 0 -69 0 2 -247z"/>
<path d="M3315 2248 c-3 -7 -4 -119 -3 -248 l3 -235 37 -3 37 -3 3 78 3 78 87
5 c66 4 94 10 115 26 41 30 63 80 63 144 0 69 -24 118 -70 145 -28 16 -57 21
-152 24 -93 2 -119 0 -123 -11z m247 -88 c16 -20 19 -35 16 -77 -7 -79 -25
-93 -115 -93 l-73 0 0 93 c0 52 3 97 8 101 4 4 38 6 76 4 58 -3 71 -8 88 -28z"/>
<path d="M3690 2225 l0 -35 70 0 70 0 2 -212 3 -213 37 -3 38 -3 2 213 3 213
68 3 67 3 0 34 0 35 -180 0 -180 0 0 -35z"/>
<path d="M4120 2010 l0 -250 155 0 155 0 0 35 0 35 -115 0 -115 0 0 75 0 75
96 0 95 0 -3 33 -3 32 -92 3 -93 3 0 69 0 70 115 0 115 0 0 35 0 35 -155 0
-155 0 0 -250z"/>
<path d="M600 1210 l0 -251 38 3 37 3 0 245 0 245 -37 3 -38 3 0 -251z"/>
<path d="M790 1210 l0 -250 40 0 40 0 0 207 c0 113 3 203 7 199 4 -4 33 -91
64 -194 l57 -187 40 -3 41 -3 35 113 c19 62 45 147 57 188 12 41 26 79 30 85
5 5 9 -80 9 -198 l0 -207 40 0 40 0 0 250 0 250 -70 0 -69 0 -19 -62 c-10 -35
-34 -118 -53 -185 -19 -68 -37 -123 -40 -123 -4 0 -32 93 -101 338 l-9 32 -69
0 -70 0 0 -250z"/>
<path d="M1402 1213 l3 -248 38 -3 37 -3 0 207 c0 122 4 204 9 199 5 -6 30
-80 55 -165 26 -85 52 -170 58 -188 9 -31 12 -33 51 -30 l41 3 57 188 c31 104
60 191 63 194 3 4 6 -87 6 -200 l0 -207 40 0 40 0 0 250 0 250 -69 0 -68 0
-54 -190 c-30 -104 -57 -186 -60 -182 -3 4 -20 59 -38 122 -18 63 -41 145 -52
183 l-20 67 -70 0 -69 0 2 -247z"/>
<path d="M2094 1446 c-69 -30 -97 -102 -98 -247 0 -81 4 -103 25 -144 38 -77
64 -90 172 -90 79 0 96 3 123 22 56 40 69 82 69 223 0 115 -2 129 -25 169 -34
60 -77 81 -165 81 -38 -1 -84 -7 -101 -14z m169 -72 c64 -38 61 -300 -4 -334
-24 -13 -105 -13 -131 1 -33 18 -48 71 -48 169 0 90 14 149 41 165 36 23 103
23 142 -1z"/>
<path d="M2490 1210 l0 -250 98 0 c165 1 222 24 242 102 14 49 -2 110 -34 135
l-23 19 23 28 c20 22 24 38 24 87 0 50 -4 64 -24 84 -33 33 -86 45 -203 45
l-103 0 0 -250z m236 155 c19 -26 18 -74 -3 -97 -13 -14 -31 -18 -85 -18 l-68
0 0 71 0 71 71 -4 c55 -3 74 -8 85 -23z m-6 -198 c22 -11 25 -19 25 -62 0 -43
-3 -51 -25 -62 -14 -7 -53 -13 -87 -13 l-63 0 0 75 0 75 63 0 c34 0 73 -6 87
-13z"/>
<path d="M2930 1209 l0 -250 38 3 37 3 3 248 2 247 -40 0 -40 0 0 -251z"/>
<path d="M3120 1210 l0 -251 138 3 137 3 0 35 0 35 -97 3 -98 3 0 209 0 210
-40 0 -40 0 0 -250z"/>
<path d="M3462 1213 l3 -248 38 -3 37 -3 0 250 0 251 -40 0 -40 0 2 -247z"/>
<path d="M3660 1210 l0 -251 153 3 152 3 3 33 3 32 -115 0 -116 0 0 75 0 75
90 0 90 0 0 35 0 35 -90 0 -90 0 0 70 0 70 115 0 115 0 0 35 0 35 -155 0 -155
0 0 -250z"/>
<path d="M4055 1448 c-3 -7 -4 -119 -3 -248 l3 -235 38 -3 37 -3 0 91 0 91 61
-3 61 -3 36 -87 35 -88 39 0 c48 0 48 6 3 110 l-35 82 28 26 c38 35 56 93 48
150 -14 101 -54 124 -223 130 -99 4 -124 2 -128 -10z m229 -69 c35 -16 51 -68
36 -114 -15 -46 -35 -55 -119 -55 l-71 0 0 83 c0 46 3 87 7 90 11 11 120 8
147 -4z"/>
</g>
</svg>
